# xmcd
#
# Track frame offsets: 
#        150
#        18265
#        29145
#        61452
#        77035
#        97517
#        125415
#        145107
#        162177
#        171102
#        195907
#        230977
#        247557
#        262410
#        268657
#        284887
#        307382
#        321617
#
# Disc length: 4498 seconds
#
# Revision: 0
# Processed by: cddbd v1.5.2PL0 Copyright (c) Steve Scherf et al.
# Submitted via: ExactAudioCopy v1.0b3
#
DISCID=0c119012
DTITLE=Wilma Jensen - Christmas At St. George's (1999)
DYEAR=1999
DGENRE=Christmas Sacred
TTITLE0=O Come Emmanuel
TTITLE1=Adam Lay Ybounden
TTITLE2=I Look From Afar
TTITLE3=Sans Day Carol
TTITLE4=Mater Ora Filium
TTITLE5=O Magnum Mysterium
TTITLE6=Ave Maria (Vocalise Dorienne)
TTITLE7=I Wonder As I Wander
TTITLE8=I Saw Three Ships
TTITLE9=The Work Made Flesh
TTITLE10=Le Sommeil De L'Enfant Jesus
TTITLE11=Still, Still, Still
TTITLE12=Suo Gan
TTITLE13=Spring Carol (From A Ceremony Of Carols)
TTITLE14=Mary's Magnificat
TTITLE15=Candlelight Carol
TTITLE16=A Hodie Processional
TTITLE17=The First Nowell
EXTD=
EXTT0=
EXTT1=
EXTT2=
EXTT3=
EXTT4=
EXTT5=
EXTT6=
EXTT7=
EXTT8=
EXTT9=
EXTT10=
EXTT11=
EXTT12=
EXTT13=
EXTT14=
EXTT15=
EXTT16=
EXTT17=
PLAYORDER=
